<svg width="33" height="33" viewBox="0 0 33 33" fill="none" xmlns="http://www.w3.org/2000/svg">
<g filter="url(#filter0_d)">
<path d="M16.5 0C9.59644 0 4 5.59644 4 12.5C4 19.4036 9.59644 25 16.5 25C23.4036 25 29 19.4036 29 12.5C28.9927 5.59953 23.4005 0.00737655 16.5 0ZM21.7642 12.8983C21.6777 13.0719 21.537 13.2126 21.3634 13.2991V13.3036L14.2205 16.875C13.7794 17.0954 13.2432 16.9166 13.0227 16.4754C12.96 16.35 12.9278 16.2116 12.9285 16.0715V8.9286C12.9283 8.43547 13.3279 8.03557 13.821 8.03531C13.9597 8.03525 14.0965 8.06748 14.2205 8.12948L21.3634 11.7009C21.8047 11.9209 21.9842 12.4569 21.7642 12.8983Z" fill="#5671F6"/>
</g>
<defs>
<filter id="filter0_d" x="0" y="0" width="33" height="33" filterUnits="userSpaceOnUse" color-interpolation-filters="sRGB">
<feFlood flood-opacity="0" result="BackgroundImageFix"/>
<feColorMatrix in="SourceAlpha" type="matrix" values="0 0 0 0 0 0 0 0 0 0 0 0 0 0 0 0 0 0 127 0"/>
<feOffset dy="4"/>
<feGaussianBlur stdDeviation="2"/>
<feColorMatrix type="matrix" values="0 0 0 0 0 0 0 0 0 0 0 0 0 0 0 0 0 0 0.25 0"/>
<feBlend mode="normal" in2="BackgroundImageFix" result="effect1_dropShadow"/>
<feBlend mode="normal" in="SourceGraphic" in2="effect1_dropShadow" result="shape"/>
</filter>
</defs>
</svg>
